<?xml version="1.0" standalone="no"?>
<!DOCTYPE svg PUBLIC "-//W3C//DTD SVG 20010904//EN"
 "http://www.w3.org/TR/2001/REC-SVG-20010904/DTD/svg10.dtd">
<svg version="1.0" xmlns="http://www.w3.org/2000/svg"
 width="128.000000pt" height="128.000000pt" viewBox="0 0 128.000000 128.000000"
 preserveAspectRatio="xMidYMid meet">

<g transform="translate(0.000000,128.000000) scale(0.100000,-0.100000)"
fill="#000000" stroke="none">
<path d="M533 1261 c-79 -29 -118 -63 -97 -84 3 -3 32 8 63 26 51 29 64 32
141 32 97 0 123 -11 207 -83 60 -51 73 -82 73 -185 0 -60 -2 -68 -17 -65 -13
2 -19 15 -21 45 -2 33 -8 43 -25 49 -12 4 -37 19 -55 35 l-32 28 -71 -36 c-62
-33 -81 -38 -164 -43 -97 -5 -127 -18 -140 -61 -4 -11 -13 -19 -21 -19 -22 0
-18 115 6 169 24 52 25 71 4 71 -29 0 -56 -87 -65 -205 -7 -97 -6 -113 10
-135 10 -14 28 -26 39 -28 16 -2 25 -15 33 -45 13 -53 54 -113 91 -135 59 -35
28 -66 -110 -113 -84 -29 -115 -47 -133 -81 -11 -21 -69 -301 -69 -333 0 -12
10 -31 23 -43 23 -22 28 -22 303 -20 240 3 279 5 279 18 0 13 -30 15 -197 18
l-197 2 -3 93 c-2 74 -6 92 -18 92 -12 0 -16 -18 -18 -92 l-3 -93 -60 0 c-46
0 -61 4 -66 17 -9 23 49 313 67 335 8 10 38 27 65 37 l51 19 23 -44 c24 -44
51 -59 51 -26 0 9 -9 31 -20 49 -12 21 -15 35 -9 39 15 9 17 6 99 -144 44 -79
82 -137 90 -137 9 0 46 58 91 140 65 121 97 163 100 132 2 -19 -147 -281 -168
-294 -21 -14 -25 -14 -47 0 -12 9 -38 45 -57 81 -22 43 -40 66 -51 66 -10 0
-18 -5 -18 -10 0 -17 80 -154 97 -167 25 -20 90 -16 112 6 10 10 53 84 97 164
l78 145 51 -19 c27 -10 57 -27 65 -37 18 -22 76 -312 67 -335 -5 -13 -20 -17
-66 -17 l-60 0 -3 92 c-2 75 -6 93 -18 93 -12 0 -16 -18 -18 -92 -3 -86 -4
-92 -25 -95 -12 -2 -22 -10 -22 -18 0 -12 19 -16 104 -18 96 -3 106 -1 127 19
13 13 24 32 24 44 0 32 -58 312 -69 333 -18 34 -49 52 -133 81 -96 32 -138 56
-138 78 0 8 20 34 44 58 28 27 51 61 63 95 14 41 25 55 50 65 21 9 35 23 39
41 12 47 -2 258 -20 291 -21 42 -106 116 -163 143 -67 32 -171 37 -240 11z
m287 -291 c25 -10 30 -18 30 -45 0 -32 -23 -55 -35 -35 -10 16 -132 12 -149
-5 -8 -8 -21 -15 -29 -15 -8 0 -20 7 -27 15 -15 18 -140 21 -158 3 -9 -9 -13
-7 -18 5 -12 33 14 47 86 47 75 0 180 28 220 59 23 18 25 19 37 2 7 -10 26
-24 43 -31z m-430 -136 c0 -37 -14 -42 -34 -12 -7 12 -6 21 3 32 21 25 31 19
31 -20z m530 1 c0 -22 -22 -40 -34 -28 -3 4 -6 16 -6 28 0 12 3 24 6 28 12 12
34 -6 34 -28z m-334 11 c3 -8 0 -24 -6 -36 -9 -17 -19 -21 -53 -18 -39 3 -42
5 -45 36 l-3 32 51 0 c34 0 52 -5 56 -14z m214 -8 c0 -40 -14 -50 -61 -46 -42
3 -44 5 -47 36 l-3 32 55 0 c51 0 56 -2 56 -22z m40 -81 c-13 -64 -42 -108
-93 -141 -139 -89 -320 14 -316 181 1 47 1 47 9 13 11 -45 34 -60 92 -60 53 0
88 24 88 60 0 11 7 20 15 20 8 0 15 -8 15 -17 0 -9 10 -27 22 -40 17 -18 32
-23 70 -23 54 0 88 24 88 63 0 13 3 27 8 31 12 13 14 -33 2 -87z m-120 -212
c0 -5 -18 -30 -40 -55 l-40 -45 -40 45 c-22 25 -40 50 -40 55 0 6 33 10 80 10
47 0 80 -4 80 -10z m-145 -85 c38 -39 38 -40 19 -55 -10 -8 -24 -15 -30 -15
-10 0 -54 81 -54 100 0 21 28 8 65 -30z m195 30 c0 -19 -44 -100 -54 -100 -6
0 -20 7 -30 15 -19 15 -19 16 19 55 37 38 65 51 65 30z m-115 -109 c7 -12 -12
-24 -25 -16 -11 7 -4 25 10 25 5 0 11 -4 15 -9z m1 -76 c8 -20 -4 -65 -16 -65
-12 0 -24 45 -16 65 3 8 10 15 16 15 6 0 13 -7 16 -15z"/>
</g>
</svg>
